
<svg width="40" height="40" xmlns="http://www.w3.org/2000/svg">
 <g id="Layer_1">
  <title>Layer 1</title>
  <rect id="svg_7" height="40" width="40" y="0" x="0" fill="#ff3300"/>
  <g>
   <g fill="#ffffff" stroke-width="0" stroke="#000" font-size="9pt" fill-rule="nonzero" stroke-linecap="round" id="svg_9">
    <path vector-effect="non-scaling-stroke" d="m20.816,18l-2,0l0,-12l1.6,0l2.736,7.776l-0.576,0.016l0,-7.792l2,0l0,12l-1.6,0l-2.736,-7.776l0.576,-0.016l0,7.792zm10.336,-2.704l0,-0.64l2.16,0l0,0.64q0,0.36 0.208,0.58q0.208,0.22 0.592,0.22q0.384,0 0.592,-0.22q0.208,-0.22 0.208,-0.58l0,-1.232q0,-0.208 -0.016,-0.328q-0.016,-0.12 -0.084,-0.192q-0.068,-0.072 -0.232,-0.132q-0.164,-0.06 -0.468,-0.148q-1.112,-0.336 -1.72,-0.572q-0.608,-0.236 -0.872,-0.508q-0.264,-0.272 -0.316,-0.708q-0.052,-0.436 -0.052,-1.172l0,-1.6q0,-1.336 0.804,-2.148q0.804,-0.812 2.156,-0.812q1.36,0 2.16,0.812q0.8,0.812 0.8,2.148l0,0.64l-2.16,0l0,-0.64q0,-0.36 -0.208,-0.58q-0.208,-0.22 -0.592,-0.22q-0.384,0 -0.592,0.22q-0.208,0.22 -0.208,0.58l0,1.6q0,0.208 0.016,0.328q0.016,0.12 0.084,0.192q0.068,0.072 0.236,0.132q0.168,0.06 0.464,0.148q1.112,0.336 1.72,0.572q0.608,0.236 0.872,0.508q0.264,0.272 0.316,0.708q0.052,0.436 0.052,1.172l0,1.232q0,1.328 -0.8,2.144q-0.8,0.816 -2.16,0.816q-1.352,0 -2.156,-0.816q-0.804,-0.816 -0.804,-2.144zm0.128,16l0,-0.64l2.16,0l0,0.64q0,0.36 0.208,0.58q0.208,0.22 0.592,0.22q0.384,0 0.592,-0.22q0.208,-0.22 0.208,-0.58l0,-1.232q0,-0.208 -0.016,-0.328q-0.016,-0.12 -0.084,-0.192q-0.068,-0.072 -0.232,-0.132q-0.164,-0.06 -0.468,-0.148q-1.112,-0.336 -1.72,-0.572q-0.608,-0.236 -0.872,-0.508q-0.264,-0.272 -0.316,-0.708q-0.052,-0.436 -0.052,-1.172l0,-1.6q0,-1.336 0.804,-2.148q0.804,-0.812 2.156,-0.812q1.36,0 2.16,0.812q0.8,0.812 0.8,2.148l0,0.64l-2.16,0l0,-0.64q0,-0.36 -0.208,-0.58q-0.208,-0.22 -0.592,-0.22q-0.384,0 -0.592,0.22q-0.208,0.22 -0.208,0.58l0,1.6q0,0.208 0.016,0.328q0.016,0.12 0.084,0.192q0.068,0.072 0.236,0.132q0.168,0.06 0.464,0.148q1.112,0.336 1.72,0.572q0.608,0.236 0.872,0.508q0.264,0.272 0.316,0.708q0.052,0.436 0.052,1.172l0,1.232q0,1.328 -0.8,2.144q-0.8,0.816 -2.16,0.816q-1.352,0 -2.156,-0.816q-0.804,-0.816 -0.804,-2.144zm-18.496,-13.296l-2.208,0l2.272,-12l2.336,0l2.224,12l-2.208,0l-0.272,-1.872l-1.856,0l-0.288,1.872zm1.376,-9.088l-0.768,5.056l1.216,0l-0.736,-5.056l0.288,0zm-7.44,25.088l-2.16,0l0,-9.84l-1.76,0l0,-2.16l5.68,0l0,2.16l-1.76,0l0,9.84zm0.048,-16l-2.96,0l0,-12l2.96,0q1.36,0 2.16,0.812q0.8,0.812 0.8,2.148l0,6.08q0,1.328 -0.8,2.144q-0.8,0.816 -2.16,0.816zm-0.8,-9.84l0,7.68l0.8,0q0.384,0 0.592,-0.22q0.208,-0.22 0.208,-0.58l0,-6.08q0,-0.36 -0.208,-0.58q-0.208,-0.22 -0.592,-0.22l-0.8,0zm19.648,13.84l2.16,0l0,9.84l2.48,0l0,2.16l-4.64,0l0,-12zm-15.984,9.296l0,-6.592q0,-1.336 0.804,-2.148q0.804,-0.812 2.156,-0.812q1.36,0 2.16,0.812q0.8,0.812 0.8,2.148l0,6.592q0,1.328 -0.8,2.144q-0.8,0.816 -2.16,0.816q-1.352,0 -2.156,-0.816q-0.804,-0.816 -0.804,-2.144zm3.76,0l0,-6.592q0,-0.36 -0.208,-0.58q-0.208,-0.22 -0.592,-0.22q-0.384,0 -0.592,0.22q-0.208,0.22 -0.208,0.58l0,6.592q0,0.36 0.208,0.58q0.208,0.22 0.592,0.22q0.384,0 0.592,-0.22q0.208,-0.22 0.208,-0.58zm4.144,0l0,-6.592q0,-1.336 0.804,-2.148q0.804,-0.812 2.156,-0.812q1.36,0 2.16,0.812q0.8,0.812 0.8,2.148l0,6.592q0,1.328 -0.8,2.144q-0.8,0.816 -2.16,0.816q-1.352,0 -2.156,-0.816q-0.804,-0.816 -0.804,-2.144zm3.76,0l0,-6.592q0,-0.36 -0.208,-0.58q-0.208,-0.22 -0.592,-0.22q-0.384,0 -0.592,0.22q-0.208,0.22 -0.208,0.58l0,6.592q0,0.36 0.208,0.58q0.208,0.22 0.592,0.22q0.384,0 0.592,-0.22q0.208,-0.22 0.208,-0.58zm7.44,-21.296l-2,0l0.64,-4l2,0l-0.64,4z"/>
   </g>
  </g>
 </g>

</svg>